<svg xmlns="http://www.w3.org/2000/svg" viewBox="0 0 1024 1024" width="1024" height="1024">
  <g transform="translate(512, 512)">
    <rect x="-195" y="-155" width="310" height="310" rx="62" ry="62" fill="none" stroke="#FFFFFF" stroke-width="6" opacity="0.9" />
    <path d="M 135,-90 L 210,-130 Q 225,-138 225,-120 L 225,120 Q 225,138 210,130 L 135,90 Z" fill="none" stroke="#FFFFFF" stroke-width="6" opacity="0.9" />
      <g opacity="0.85">
        <rect x="-179" y="-8" width="9" height="16" rx="4.5" fill="#FFFFFF" opacity="0.4" />
        <rect x="-164" y="-18" width="9" height="36" rx="4.5" fill="#FFFFFF" opacity="0.42" />
        <rect x="-149" y="-12" width="9" height="24" rx="4.5" fill="#FFFFFF" opacity="0.4" />
        <rect x="-134" y="-30" width="9" height="60" rx="4.5" fill="#FFFFFF" opacity="0.45" />
        <rect x="-119" y="-20" width="9" height="40" rx="4.5" fill="#FFFFFF" opacity="0.43" />
        <rect x="-104" y="-48" width="9" height="96" rx="4.5" fill="#FFFFFF" opacity="0.5" />
        <rect x="-89" y="-35" width="9" height="70" rx="4.5" fill="#FFFFFF" opacity="0.48" />
        <rect x="-74" y="-72" width="9" height="144" rx="4.5" fill="#FFFFFF" opacity="0.55" />
        <rect x="-59" y="-55" width="9" height="110" rx="4.5" fill="#FFFFFF" opacity="0.52" />
        <rect x="-44" y="-120" width="9" height="240" rx="4.5" fill="#FFFFFF" opacity="0.65" />
        <rect x="-29" y="-55" width="9" height="110" rx="4.5" fill="#FFFFFF" opacity="0.52" />
        <rect x="-14" y="-72" width="9" height="144" rx="4.5" fill="#FFFFFF" opacity="0.55" />
        <rect x="1" y="-35" width="9" height="70" rx="4.5" fill="#FFFFFF" opacity="0.48" />
        <rect x="16" y="-48" width="9" height="96" rx="4.5" fill="#FFFFFF" opacity="0.5" />
        <rect x="31" y="-20" width="9" height="40" rx="4.5" fill="#FFFFFF" opacity="0.43" />
        <rect x="46" y="-30" width="9" height="60" rx="4.5" fill="#FFFFFF" opacity="0.45" />
        <rect x="61" y="-12" width="9" height="24" rx="4.5" fill="#FFFFFF" opacity="0.4" />
        <rect x="76" y="-18" width="9" height="36" rx="4.5" fill="#FFFFFF" opacity="0.42" />
        <rect x="91" y="-8" width="9" height="16" rx="4.5" fill="#FFFFFF" opacity="0.4" />
      </g>
  </g>
</svg>