<svg xmlns="http://www.w3.org/2000/svg" viewBox="0 0 380 56" width="380" height="56">
  <defs>
    <linearGradient id="dCam" x1="0%" y1="0%" x2="100%" y2="100%">
      <stop offset="0%" style="stop-color:#B794F6" />
      <stop offset="50%" style="stop-color:#8B5CF6" />
      <stop offset="100%" style="stop-color:#6D28D9" />
    </linearGradient>
    <linearGradient id="dLens" x1="0%" y1="0%" x2="100%" y2="100%">
      <stop offset="0%" style="stop-color:#A78BFA" />
      <stop offset="100%" style="stop-color:#7C3AED" />
    </linearGradient>
    <filter id="dGlow">
      <feGaussianBlur stdDeviation="1.5" result="b"/>
      <feMerge><feMergeNode in="b"/><feMergeNode in="SourceGraphic"/></feMerge>
    </filter>
  </defs>
  <rect width="380" height="56" fill="#0f0d1a" rx="6" />
  <g transform="translate(28, 28)">
    <rect x="-14" y="-11" width="22" height="22" rx="5" ry="5" fill="url(#dCam)" filter="url(#dGlow)" />
    <path d="M 10,-6.5 L 15.5,-9.5 Q 17,-10.2 17,-8.5 L 17,8.5 Q 17,10.2 15.5,9.5 L 10,6.5 Z" fill="url(#dLens)" />
    <g opacity="0.7">
      <rect x="-12" y="-0.8" width="1.3" height="1.6" rx="0.65" fill="#EDE9FE" opacity="0.4" />
      <rect x="-10" y="-1.5" width="1.3" height="3.0" rx="0.65" fill="#DDD6FE" opacity="0.42" />
      <rect x="-8" y="-2.5" width="1.3" height="5.0" rx="0.65" fill="#EDE9FE" opacity="0.46" />
      <rect x="-6" y="-4.5" width="1.3" height="9.0" rx="0.65" fill="#DDD6FE" opacity="0.52" />
      <rect x="-4" y="-5.5" width="1.3" height="11.0" rx="0.65" fill="#EDE9FE" opacity="0.56" />
      <rect x="-2" y="-6.5" width="1.3" height="13.0" rx="0.65" fill="#DDD6FE" opacity="0.6" />
      <rect x="0" y="-5.5" width="1.3" height="11.0" rx="0.65" fill="#EDE9FE" opacity="0.56" />
      <rect x="2" y="-4.5" width="1.3" height="9.0" rx="0.65" fill="#DDD6FE" opacity="0.52" />
      <rect x="4" y="-2.5" width="1.3" height="5.0" rx="0.65" fill="#EDE9FE" opacity="0.46" />
      <rect x="6" y="-1.5" width="1.3" height="3.0" rx="0.65" fill="#DDD6FE" opacity="0.42" />
      <rect x="8" y="-0.8" width="1.3" height="1.6" rx="0.65" fill="#EDE9FE" opacity="0.4" />
    </g>
  </g>
  <text x="54" y="35" font-family="'IBM Plex Sans', 'SF Pro Display', 'Segoe UI', system-ui, sans-serif" font-size="24" letter-spacing="-0.01em">
    <tspan fill="#FFFFFF" font-weight="500">Video</tspan><tspan fill="#A78BFA" font-weight="600">scriber</tspan>
  </text>
</svg>